{
  "accessors": [
    {
      "bufferView": 2,
      "componentType": 5126,
      "count": 2659,
      "max": [
        1.0262988805770874,
        4.310122013092041,
        18.433395385742188
      ],
      "min": [
        -1.0028058290481567,
        -2.103766918182373,
        -15.982019424438477
      ],
      "type": "VEC3"
    },
    {
      "bufferView": 2,
      "byteOffset": 31908,
      "componentType": 5126,
      "count": 2659,
      "max": [
        1.0,
        1.0,
        1.0
      ],
      "min": [
        -1.0,
        -1.0,
        -1.0
      ],
      "type": "VEC3"
    },
    {
      "bufferView": 1,
      "componentType": 5126,
      "count": 2659,
      "max": [
        2.907017946243286,
        1.4999995231628418
      ],
      "min": [
        -0.4999682307243347,
        -0.4999995231628418
      ],
      "type": "VEC2"
    },
    {
      "bufferView": 1,
      "byteOffset": 21272,
      "componentType": 5126,
      "count": 2659,
      "max": [
        2.907017946243286,
        1.4999995231628418
      ],
      "min": [
        -0.4999682307243347,
        -0.4999995231628418
      ],
      "type": "VEC2"
    },
    {
      "bufferView": 0,
      "componentType": 5125,
      "count": 8556,
      "type": "SCALAR"
    },
    {
      "bufferView": 2,
      "byteOffset": 63816,
      "componentType": 5126,
      "count": 24,
      "max": [
        0.2562732994556427,
        0.7300708889961243,
        -5.145527362823486
      ],
      "min": [
        -0.2562732994556427,
        -0.631022036075592,
        -7.601620197296143
      ],
      "type": "VEC3"
    },
    {
      "bufferView": 2,
      "byteOffset": 64104,
      "componentType": 5126,
      "count": 24,
      "max": [
        1.0,
        1.0,
        0.9999420046806335
      ],
      "min": [
        -1.0,
        -0.9934623837471008,
        -0.9998536109924316
      ],
      "type": "VEC3"
    },
    {
      "bufferView": 1,
      "byteOffset": 42544,
      "componentType": 5126,
      "count": 24,
      "max": [
        0.9253057837486267,
        1.1407986879348755
      ],
      "min": [
        -0.09435683488845825,
        -0.20352357625961304
      ],
      "type": "VEC2"
    },
    {
      "bufferView": 1,
      "byteOffset": 42736,
      "componentType": 5126,
      "count": 24,
      "max": [
        0.9253057837486267,
        1.1407986879348755
      ],
      "min": [
        -0.09435683488845825,
        -0.20352357625961304
      ],
      "type": "VEC2"
    },
    {
      "bufferView": 0,
      "byteOffset": 34224,
      "componentType": 5125,
      "count": 36,
      "type": "SCALAR"
    },
    {
      "bufferView": 2,
      "byteOffset": 64392,
      "componentType": 5126,
      "count": 850,
      "max": [
        0.7496440410614014,
        4.355658054351807,
        0.42088666558265686
      ],
      "min": [
        -0.7496442198753357,
        2.8563694953918457,
        -10.31649112701416
      ],
      "type": "VEC3"
    },
    {
      "bufferView": 2,
      "byteOffset": 74592,
      "componentType": 5126,
      "count": 850,
      "max": [
        1.0,
        1.0,
        1.0
      ],
      "min": [
        -1.0,
        -1.0,
        -1.0
      ],
      "type": "VEC3"
    },
    {
      "bufferView": 1,
      "byteOffset": 42928,
      "componentType": 5126,
      "count": 850,
      "max": [
        1.0,
        0.9743595719337463
      ],
      "min": [
        0.0,
        0.0
      ],
      "type": "VEC2"
    },
    {
      "bufferView": 1,
      "byteOffset": 49728,
      "componentType": 5126,
      "count": 850,
      "max": [
        1.0,
        0.9743595719337463
      ],
      "min": [
        0.0,
        0.0
      ],
      "type": "VEC2"
    },
    {
      "bufferView": 0,
      "byteOffset": 34368,
      "componentType": 5125,
      "count": 1920,
      "type": "SCALAR"
    },
    {
      "bufferView": 2,
      "byteOffset": 84792,
      "componentType": 5126,
      "count": 42,
      "max": [
        0.7174181342124939,
        4.323431968688965,
        0.2761346399784088
      ],
      "min": [
        -0.7174183130264282,
        2.8885951042175293,
        -10.31649112701416
      ],
      "type": "VEC3"
    },
    {
      "bufferView": 2,
      "byteOffset": 85296,
      "componentType": 5126,
      "count": 42,
      "max": [
        0.10091389715671539,
        0.1060500368475914,
        1.0
      ],
      "min": [
        -0.1009138748049736,
        -0.10605008900165558,
        -1.0
      ],
      "type": "VEC3"
    },
    {
      "bufferView": 1,
      "byteOffset": 56528,
      "componentType": 5126,
      "count": 42,
      "max": [
        0.9517809152603149,
        0.620013415813446
      ],
      "min": [
        0.7412976622581482,
        0.016548752784729004
      ],
      "type": "VEC2"
    },
    {
      "bufferView": 0,
      "byteOffset": 42048,
      "componentType": 5125,
      "count": 120,
      "type": "SCALAR"
    },
    {
      "bufferView": 2,
      "byteOffset": 85800,
      "componentType": 5126,
      "count": 453,
      "max": [
        0.5,
        2.1105756759643555,
        -12.731599807739258
      ],
      "min": [
        -0.5,
        -1.4563846588134766,
        -18.32715606689453
      ],
      "type": "VEC3"
    },
    {
      "bufferView": 2,
      "byteOffset": 91236,
      "componentType": 5126,
      "count": 453,
      "max": [
        1.0,
        1.0,
        1.0
      ],
      "min": [
        -1.0,
        -1.0,
        -0.9996883869171143
      ],
      "type": "VEC3"
    },
    {
      "bufferView": 1,
      "byteOffset": 56864,
      "componentType": 5126,
      "count": 453,
      "max": [
        0.9980080723762512,
        0.9158899784088135
      ],
      "min": [
        0.0019920319318771362,
        0.0018105956260114908
      ],
      "type": "VEC2"
    },
    {
      "bufferView": 0,
      "byteOffset": 42528,
      "componentType": 5125,
      "count": 1920,
      "type": "SCALAR"
    },
    {
      "bufferView": 2,
      "byteOffset": 96672,
      "componentType": 5126,
      "count": 4979,
      "max": [
        0.43210992217063904,
        2.1338114738464355,
        2.081027030944824
      ],
      "min": [
        -0.4584091603755951,
        -1.6011728048324585,
        -16.557167053222656
      ],
      "type": "VEC3"
    },
    {
      "bufferView": 2,
      "byteOffset": 156420,
      "componentType": 5126,
      "count": 4979,
      "max": [
        1.0,
        1.0,
        1.0
      ],
      "min": [
        -1.0,
        -0.9999998211860657,
        -1.0
      ],
      "type": "VEC3"
    },
    {
      "bufferView": 1,
      "byteOffset": 60488,
      "componentType": 5126,
      "count": 4979,
      "max": [
        1.850579023361206,
        1.9871549606323242
      ],
      "min": [
        -0.9193082451820374,
        -0.9871547818183899
      ],
      "type": "VEC2"
    },
    {
      "bufferView": 1,
      "byteOffset": 100320,
      "componentType": 5126,
      "count": 4979,
      "max": [
        1.850579023361206,
        1.9871549606323242
      ],
      "min": [
        -0.9193082451820374,
        -0.9871547818183899
      ],
      "type": "VEC2"
    },
    {
      "bufferView": 0,
      "byteOffset": 50208,
      "componentType": 5125,
      "count": 22602,
      "type": "SCALAR"
    }
  ],
  "asset": {
    "extras": {
      "author": "Bryan (https://sketchfab.com/BryanSanchinolo)",
      "license": "CC-BY-4.0 (http://creativecommons.org/licenses/by/4.0/)",
      "source": "https://sketchfab.com/3d-models/l96a1-generic-sniper-rifle-cb615ed6758d434e8bd54255eb756a1b",
      "title": "L96A1/ Generic Sniper Rifle"
    },
    "generator": "Sketchfab-12.65.0",
    "version": "2.0"
  },
  "bufferViews": [
    {
      "buffer": 0,
      "byteLength": 140616,
      "name": "floatBufferViews",
      "target": 34963
    },
    {
      "buffer": 0,
      "byteLength": 140152,
      "byteOffset": 140616,
      "byteStride": 8,
      "name": "floatBufferViews",
      "target": 34962
    },
    {
      "buffer": 0,
      "byteLength": 216168,
      "byteOffset": 280768,
      "byteStride": 12,
      "name": "floatBufferViews",
      "target": 34962
    }
  ],
  "buffers": [
    {
      "byteLength": 496936,
      "uri": "scene.bin"
    }
  ],
  "images": [
    {
      "uri": "textures/Team3_Sanchez_GunGenerealTexture_baseColor.png"
    },
    {
      "uri": "textures/Team3_Sanchez_GunAmmunition_baseColor.png"
    },
    {
      "uri": "textures/Team3_Sanchez_GunScope_baseColor.png"
    },
    {
      "uri": "textures/Team3_Sanchez_GunStock_baseColor.png"
    },
    {
      "uri": "textures/Team3_Sanchez_GunBody_baseColor.png"
    }
  ],
  "materials": [
    {
      "doubleSided": true,
      "name": "Team3_Sanchez_GunGenerealTexture",
      "pbrMetallicRoughness": {
        "baseColorTexture": {
          "index": 0
        },
        "roughnessFactor": 0.23608993902439024
      }
    },
    {
      "doubleSided": true,
      "name": "Team3_Sanchez_GunAmmunition",
      "pbrMetallicRoughness": {
        "baseColorTexture": {
          "index": 1
        },
        "metallicFactor": 0.9407393292682927,
        "roughnessFactor": 0.2116996951219512
      }
    },
    {
      "doubleSided": true,
      "name": "Team3_Sanchez_GunScope",
      "pbrMetallicRoughness": {
        "baseColorTexture": {
          "index": 2
        },
        "roughnessFactor": 0.2726753048780487
      }
    },
    {
      "doubleSided": true,
      "name": "Team3_Sanchez_GunReticle",
      "pbrMetallicRoughness": {
        "baseColorFactor": [
          0.5,
          0.5,
          0.5,
          1.0
        ],
        "metallicFactor": 0.0,
        "roughnessFactor": 0.0
      }
    },
    {
      "doubleSided": true,
      "name": "Team3_Sanchez_GunStock",
      "pbrMetallicRoughness": {
        "baseColorTexture": {
          "index": 3
        },
        "metallicFactor": 0.9041539634146343
      }
    },
    {
      "doubleSided": true,
      "name": "Team3_Sanchez_GunBody",
      "pbrMetallicRoughness": {
        "baseColorTexture": {
          "index": 4
        },
        "metallicFactor": 0.684641768292683,
        "roughnessFactor": 0.5043826219512195
      }
    }
  ],
  "meshes": [
    {
      "name": "Team3_Sanchez_L96A1_Team3_Sanchez_GunGenerealTexture_0",
      "primitives": [
        {
          "attributes": {
            "NORMAL": 1,
            "POSITION": 0,
            "TEXCOORD_0": 2,
            "TEXCOORD_1": 3
          },
          "indices": 4,
          "material": 0,
          "mode": 4
        }
      ]
    },
    {
      "name": "Team3_Sanchez_L96A1_Team3_Sanchez_GunAmmunition_0",
      "primitives": [
        {
          "attributes": {
            "NORMAL": 6,
            "POSITION": 5,
            "TEXCOORD_0": 7,
            "TEXCOORD_1": 8
          },
          "indices": 9,
          "material": 1,
          "mode": 4
        }
      ]
    },
    {
      "name": "Team3_Sanchez_L96A1_Team3_Sanchez_GunScope_0",
      "primitives": [
        {
          "attributes": {
            "NORMAL": 11,
            "POSITION": 10,
            "TEXCOORD_0": 12,
            "TEXCOORD_1": 13
          },
          "indices": 14,
          "material": 2,
          "mode": 4
        }
      ]
    },
    {
      "name": "Team3_Sanchez_L96A1_Team3_Sanchez_GunReticle_0",
      "primitives": [
        {
          "attributes": {
            "NORMAL": 16,
            "POSITION": 15,
            "TEXCOORD_0": 17
          },
          "indices": 18,
          "material": 3,
          "mode": 4
        }
      ]
    },
    {
      "name": "Team3_Sanchez_L96A1_Team3_Sanchez_GunStock_0",
      "primitives": [
        {
          "attributes": {
            "NORMAL": 20,
            "POSITION": 19,
            "TEXCOORD_0": 21
          },
          "indices": 22,
          "material": 4,
          "mode": 4
        }
      ]
    },
    {
      "name": "Team3_Sanchez_L96A1_Team3_Sanchez_GunBody_0",
      "primitives": [
        {
          "attributes": {
            "NORMAL": 24,
            "POSITION": 23,
            "TEXCOORD_0": 25,
            "TEXCOORD_1": 26
          },
          "indices": 27,
          "material": 5,
          "mode": 4
        }
      ]
    }
  ],
  "nodes": [
    {
      "children": [
        1
      ],
      "matrix": [
        1.0,
        0.0,
        0.0,
        0.0,
        0.0,
        2.220446049250313e-16,
        -1.0,
        0.0,
        0.0,
        1.0,
        2.220446049250313e-16,
        0.0,
        0.0,
        0.0,
        0.0,
        1.0
      ],
      "name": "Sketchfab_model"
    },
    {
      "children": [
        2
      ],
      "matrix": [
        1.0,
        0.0,
        0.0,
        0.0,
        0.0,
        0.0,
        1.0,
        0.0,
        0.0,
        -1.0,
        0.0,
        0.0,
        0.0,
        0.0,
        0.0,
        1.0
      ],
      "name": "5f6fda727df94ede92ab8c46dc448be4.fbx"
    },
    {
      "children": [
        3
      ],
      "name": "RootNode"
    },
    {
      "children": [
        4,
        5,
        6,
        7,
        8,
        9
      ],
      "name": "Team3_Sanchez_L96A1"
    },
    {
      "mesh": 0,
      "name": "Team3_Sanchez_L96A1_Team3_Sanchez_GunGenerealTexture_0"
    },
    {
      "mesh": 1,
      "name": "Team3_Sanchez_L96A1_Team3_Sanchez_GunAmmunition_0"
    },
    {
      "mesh": 2,
      "name": "Team3_Sanchez_L96A1_Team3_Sanchez_GunScope_0"
    },
    {
      "mesh": 3,
      "name": "Team3_Sanchez_L96A1_Team3_Sanchez_GunReticle_0"
    },
    {
      "mesh": 4,
      "name": "Team3_Sanchez_L96A1_Team3_Sanchez_GunStock_0"
    },
    {
      "mesh": 5,
      "name": "Team3_Sanchez_L96A1_Team3_Sanchez_GunBody_0"
    }
  ],
  "samplers": [
    {
      "magFilter": 9729,
      "minFilter": 9987,
      "wrapS": 10497,
      "wrapT": 10497
    }
  ],
  "scene": 0,
  "scenes": [
    {
      "name": "Sketchfab_Scene",
      "nodes": [
        0
      ]
    }
  ],
  "textures": [
    {
      "sampler": 0,
      "source": 0
    },
    {
      "sampler": 0,
      "source": 1
    },
    {
      "sampler": 0,
      "source": 2
    },
    {
      "sampler": 0,
      "source": 3
    },
    {
      "sampler": 0,
      "source": 4
    }
  ]
}
